<?xml version="1.0" encoding="utf-8"?>
<!-- Generator: Adobe Illustrator 16.0.0, SVG Export Plug-In . SVG Version: 6.00 Build 0)  -->
<!DOCTYPE svg PUBLIC "-//W3C//DTD SVG 1.1//EN" "http://www.w3.org/Graphics/SVG/1.1/DTD/svg11.dtd">
<svg version="1.1" id="Calque_1" xmlns="http://www.w3.org/2000/svg" xmlns:xlink="http://www.w3.org/1999/xlink" x="0px" y="0px"
	 width="270px" height="180px" viewBox="0 0 270 180" enable-background="new 0 0 270 180" xml:space="preserve">
<g>
	<rect x="0.5" y="0.5" fill="#010202" width="269" height="179"/>
	<path d="M269,1v178H1V1H269 M270,0H0v180h270V0L270,0z"/>
</g>
<g>
	<rect x="9.712" y="8.212" fill="#4E4D4D" width="251.076" height="163.576"/>
	<path d="M260.326,8.673v162.653H10.173V8.673H260.326 M261.25,7.75h-252v164.5h252V7.75L261.25,7.75z"/>
</g>
<polygon fill="#B5B5B5" points="14.75,168.25 253.5,168.25 181.5,60.25 125.75,123.75 85.5,96 "/>
<circle fill="#FFFFFF" cx="53.125" cy="51.375" r="23.875"/>
<polygon fill="#FBFBFB" points="59.648,122.4 79.5,116 93.5,122.4 103.75,116 112.75,120.25 115.753,116.857 85.5,96 "/>
<polygon fill="#FFFFFF" points="155.381,90 171,84.25 182.25,90 191,84.25 201.333,90 181.5,60.25 "/>
</svg>
