<svg version="1.1" xmlns="http://www.w3.org/2000/svg" xmlns:xlink="http://www.w3.org/1999/xlink" x="0px" y="0px" width="155px" height="154px" viewBox="401.5 31.5 155 154" enable-background="new 401.5 31.5 155 154" xml:space="preserve">
                    <circle fill="#3DC9B3" cx="480" cy="109" r="70"/>
                    <g>
                        <defs>
                            <circle id="SVGID_1_" cx="480" cy="109" r="70"/>
                        </defs>
                        <clipPath id="SVGID_2_">
                            <use xlink:href="#SVGID_1_"  overflow="visible"/>
                        </clipPath>
                        <polyline clip-path="url(#SVGID_2_)" fill="#39BDA9" points="455,110.5 514.494,169.994 568.5,169.994 530.878,132.372 
                            504.878,106.372 491.628,93.122 488.435,89.929 482.75,89.929 469.154,94.682 	"/>
                    </g>
                    <polyline fill="#3DC9B3" points="468.611,94.081 479.561,107.879 485.186,88.553 485.68,87.934 475.79,89.824 468.611,93.506 
                        468.611,93.21 "/>
                    <path fill="#FFFFFF" d="M471.322,122.537l-1.485,1.485c-0.198,0.198-0.426,0.297-0.683,0.297c-0.257,0-0.485-0.099-0.683-0.297
                        l-13.838-13.839c-0.198-0.197-0.297-0.425-0.297-0.683c0-0.257,0.099-0.485,0.297-0.684l13.838-13.838
                        c0.198-0.198,0.426-0.298,0.683-0.298c0.257,0,0.485,0.1,0.683,0.298l1.485,1.485c0.198,0.197,0.297,0.425,0.297,0.682
                        c0,0.258-0.099,0.486-0.297,0.684l-11.67,11.671l11.67,11.671c0.198,0.198,0.297,0.425,0.297,0.684
                        C471.619,122.112,471.52,122.339,471.322,122.537z M488.873,90.852l-11.077,38.339c-0.08,0.257-0.233,0.45-0.46,0.578
                        c-0.228,0.129-0.46,0.153-0.698,0.074l-1.841-0.505c-0.257-0.079-0.45-0.232-0.579-0.461c-0.129-0.227-0.153-0.469-0.074-0.726
                        l11.077-38.339c0.079-0.258,0.233-0.451,0.46-0.579c0.229-0.129,0.461-0.154,0.699-0.075l1.84,0.504
                        c0.258,0.08,0.451,0.233,0.579,0.461C488.927,90.351,488.951,90.595,488.873,90.852z M508.383,110.184l-13.838,13.839
                        c-0.198,0.198-0.426,0.297-0.683,0.297c-0.258,0-0.486-0.099-0.685-0.297l-1.484-1.485c-0.198-0.198-0.297-0.425-0.297-0.682
                        c0-0.259,0.099-0.485,0.297-0.684l11.671-11.671L491.693,97.83c-0.198-0.197-0.297-0.426-0.297-0.684
                        c0-0.257,0.099-0.484,0.297-0.682l1.484-1.485c0.198-0.198,0.427-0.298,0.685-0.298c0.257,0,0.484,0.1,0.683,0.298l13.838,13.838
                        c0.198,0.198,0.297,0.427,0.297,0.684C508.68,109.759,508.581,109.986,508.383,110.184z"/>
                    </svg>