<svg version="1.1" xmlns="http://www.w3.org/2000/svg" xmlns:xlink="http://www.w3.org/1999/xlink" x="0px" y="0px" width="155px" height="154px" viewBox="401.5 31.5 155 154" enable-background="new 401.5 31.5 155 154" xml:space="preserve">
                    <circle fill="#3DC9B3" cx="480" cy="109" r="70"/>
                    <g>
                        <defs>
                            <circle id="SVGID_1_" cx="480" cy="108.5" r="70"/>
                        </defs>
                        <clipPath id="SVGID_2_">
                            <use xlink:href="#SVGID_1_"  overflow="visible"/>
                        </clipPath>
                        <polyline clip-path="url(#SVGID_2_)" fill="#39BDA9" points="447.25,128.427 504.662,185.838 556.5,135.241 534.13,112.87 
                            519.166,97.906 507.005,85.745 488.35,85.745 472,85.745 466.25,85.745 463,85.745 460.906,87.839 	"/>
                    </g>
                    <g>
                        <defs>
                            <circle id="SVGID_3_" cx="480" cy="109" r="70"/>
                        </defs>
                        <clipPath id="SVGID_4_">
                            <use xlink:href="#SVGID_3_"  overflow="visible"/>
                        </clipPath>
                        <g clip-path="url(#SVGID_4_)">
                            <defs>
                                <circle id="SVGID_5_" cx="480" cy="109" r="70"/>
                            </defs>
                            <clipPath id="SVGID_6_">
                                <use xlink:href="#SVGID_5_"  overflow="visible"/>
                            </clipPath>
                        </g>
                    </g>
                    <polyline fill="#3DC9B3" points="445.486,119.192 452.737,131.245 456.463,114.363 456.79,113.823 450.24,115.476 445.486,118.689 
                        445.486,118.432 "/>
                    <polyline fill="#3DC9B3" points="436.611,111.182 451.134,128.146 458.595,104.386 459.25,103.625 446.132,105.95 436.611,110.475 
                        436.611,110.112 "/>
                    <path fill="#FFFFFF" d="M461.781,122.354c-1.659,0-3.078-0.591-4.26-1.772c-1.181-1.181-1.771-2.601-1.771-4.259V89.785
                        c0-1.658,0.591-3.078,1.771-4.26c1.182-1.181,2.601-1.771,4.26-1.771h41.013c1.658,0,3.079,0.591,4.259,1.771
                        c1.182,1.182,1.772,2.602,1.772,4.26v26.538c0,1.658-0.591,3.078-1.772,4.259c-1.18,1.182-2.601,1.772-4.259,1.772H461.781z
                         M460.575,89.785v26.538c0,0.326,0.119,0.609,0.358,0.849c0.239,0.237,0.521,0.356,0.848,0.356h41.013
                        c0.326,0,0.61-0.119,0.849-0.356c0.237-0.239,0.357-0.522,0.357-0.849V89.785c0-0.327-0.12-0.61-0.357-0.848
                        c-0.238-0.239-0.522-0.358-0.849-0.358h-41.013c-0.327,0-0.609,0.119-0.848,0.358C460.694,89.175,460.575,89.458,460.575,89.785z
                         M512.444,124.767h6.031v3.619c0,1.005-0.591,1.859-1.772,2.563c-1.181,0.704-2.601,1.056-4.259,1.056h-60.313
                        c-1.659,0-3.079-0.352-4.26-1.056c-1.181-0.703-1.771-1.558-1.771-2.563v-3.619H512.444z M485.304,128.386
                        c0.401,0,0.603-0.202,0.603-0.604c0-0.402-0.201-0.604-0.603-0.604h-6.031c-0.402,0-0.604,0.201-0.604,0.604
                        c0,0.401,0.202,0.604,0.604,0.604H485.304z"/>
                    </svg>