<svg version="1.1" xmlns="http://www.w3.org/2000/svg" xmlns:xlink="http://www.w3.org/1999/xlink" x="0px" y="0px" width="155px" height="154px" viewBox="401.5 31.5 155 154" enable-background="new 401.5 31.5 155 154" xml:space="preserve">
                    <circle fill="#3DC9B3" cx="480" cy="109" r="70"/>
                    <g>
                        <defs>
                            <circle id="SVGID_1_" cx="480" cy="109" r="70"/>
                        </defs>
                        <clipPath id="SVGID_2_">
                            <use xlink:href="#SVGID_1_"  overflow="visible"/>
                        </clipPath>
                        <g clip-path="url(#SVGID_2_)">
                            <defs>
                                <circle id="SVGID_3_" cx="480" cy="109" r="70"/>
                            </defs>
                            <clipPath id="SVGID_4_">
                                <use xlink:href="#SVGID_3_"  overflow="visible"/>
                            </clipPath>
                            <polyline clip-path="url(#SVGID_4_)" fill="#39BDA9" points="455.376,111.278 519.549,175.451 554.625,140.375 535.5,121.25 
                                515.5,101.25 505,90.75 		"/>
                        </g>
                    </g>
                    <polyline fill="#3DC9B3" points="468.611,94.081 479.561,107.879 485.186,88.553 485.68,87.934 475.79,89.824 468.611,93.506 
                        468.611,93.21 "/>
                    <path fill="#FFFFFF" d="M481,135.623c-0.55,0-1.015-0.19-1.395-0.57l-19.78-19.083c-0.211-0.169-0.502-0.444-0.872-0.824
                        s-0.956-1.072-1.759-2.076c-0.803-1.004-1.521-2.034-2.155-3.091c-0.634-1.056-1.199-2.335-1.696-3.835
                        c-0.497-1.501-0.745-2.959-0.745-4.375c0-4.648,1.342-8.284,4.026-10.904c2.684-2.621,6.393-3.931,11.126-3.931
                        c1.31,0,2.646,0.227,4.01,0.682c1.363,0.455,2.631,1.067,3.804,1.839s2.182,1.494,3.027,2.171c0.845,0.677,1.647,1.396,2.409,2.155
                        c0.76-0.76,1.564-1.479,2.409-2.155s1.854-1.399,3.026-2.171c1.174-0.771,2.441-1.384,3.805-1.839s2.7-0.682,4.01-0.682
                        c4.733,0,8.442,1.31,11.126,3.931c2.685,2.62,4.025,6.256,4.025,10.904c0,4.671-2.419,9.426-7.259,14.265l-19.748,19.02
                        C482.014,135.433,481.549,135.623,481,135.623z"/>
                    </svg>